<svg width="50" height="51" viewBox="0 0 50 51" fill="none" xmlns="http://www.w3.org/2000/svg">
<g clip-path="url(#clip0_49699_2146)">
<path d="M20.8333 6.75V10.9167H10.4167V40.0833H39.5833V29.6667H43.75V42.1667C43.75 42.7192 43.5305 43.2491 43.1398 43.6398C42.7491 44.0305 42.2192 44.25 41.6667 44.25H8.33333C7.7808 44.25 7.25089 44.0305 6.86019 43.6398C6.46949 43.2491 6.25 42.7192 6.25 42.1667V8.83333C6.25 8.2808 6.46949 7.75089 6.86019 7.36019C7.25089 6.96949 7.7808 6.75 8.33333 6.75H20.8333ZM36.6375 10.9167H27.0833V6.75H43.75V23.4167H39.5833V13.8625L25 28.4458L22.0542 25.5L36.6375 10.9167Z" fill="white"/>
</g>
<defs>
<clipPath id="clip0_49699_2146">
<rect width="50" height="50" fill="white" transform="translate(0 0.5)"/>
</clipPath>
</defs>
</svg>
